<mxfile host="Electron" modified="2023-12-29T08:21:31.184Z" agent="Mozilla/5.0 (Windows NT 10.0; Win64; x64) AppleWebKit/537.36 (KHTML, like Gecko) draw.io/22.1.15 Chrome/120.0.6099.109 Electron/28.1.0 Safari/537.36" etag="lt2fKdx7yE--QYeUtrdY" version="22.1.15" type="device">
  <diagram name="ページ1" id="LE8fIzdrHe0wcv1LTvfw">
    <mxGraphModel dx="1889" dy="1116" grid="1" gridSize="10" guides="1" tooltips="1" connect="1" arrows="1" fold="1" page="1" pageScale="1" pageWidth="1600" pageHeight="1200" math="0" shadow="0">
      <root>
        <mxCell id="0" />
        <mxCell id="cFaB45KztUIKXS-_cTrr-4" value="背景" style="locked=1;" parent="0" visible="0" />
        <mxCell id="cFaB45KztUIKXS-_cTrr-5" value="" style="rounded=0;whiteSpace=wrap;html=1;strokeWidth=3;" parent="cFaB45KztUIKXS-_cTrr-4" vertex="1">
          <mxGeometry x="1" y="1" width="1595" height="1180" as="geometry" />
        </mxCell>
        <mxCell id="cFaB45KztUIKXS-_cTrr-6" value="" style="rounded=0;whiteSpace=wrap;html=1;fillColor=#B3B3B3;fontColor=#333333;strokeColor=#666666;" parent="cFaB45KztUIKXS-_cTrr-4" vertex="1">
          <mxGeometry width="1595" height="60" as="geometry" />
        </mxCell>
        <mxCell id="cFaB45KztUIKXS-_cTrr-7" value="&lt;font style=&quot;font-size: 48px;&quot;&gt;×&lt;/font&gt;" style="rounded=0;whiteSpace=wrap;html=1;" parent="cFaB45KztUIKXS-_cTrr-4" vertex="1">
          <mxGeometry x="1550" y="10" width="40" height="40" as="geometry" />
        </mxCell>
        <mxCell id="cFaB45KztUIKXS-_cTrr-8" value="" style="rounded=0;whiteSpace=wrap;html=1;" parent="cFaB45KztUIKXS-_cTrr-4" vertex="1">
          <mxGeometry x="830" y="670" width="120" height="60" as="geometry" />
        </mxCell>
        <mxCell id="cFaB45KztUIKXS-_cTrr-9" value="ウインドウ" style="locked=1;" parent="0" />
        <mxCell id="cFaB45KztUIKXS-_cTrr-10" value="" style="rounded=0;whiteSpace=wrap;html=1;strokeWidth=3;" parent="cFaB45KztUIKXS-_cTrr-9" vertex="1">
          <mxGeometry x="1" y="1" width="1595" height="1180" as="geometry" />
        </mxCell>
        <mxCell id="cFaB45KztUIKXS-_cTrr-11" value="" style="rounded=0;whiteSpace=wrap;html=1;fillColor=#B3B3B3;fontColor=#333333;strokeColor=#666666;" parent="cFaB45KztUIKXS-_cTrr-9" vertex="1">
          <mxGeometry width="1595" height="60" as="geometry" />
        </mxCell>
        <mxCell id="cFaB45KztUIKXS-_cTrr-12" value="&lt;font style=&quot;font-size: 48px;&quot;&gt;×&lt;/font&gt;" style="rounded=0;whiteSpace=wrap;html=1;" parent="cFaB45KztUIKXS-_cTrr-9" vertex="1">
          <mxGeometry x="1550" y="10" width="40" height="40" as="geometry" />
        </mxCell>
        <mxCell id="cFaB45KztUIKXS-_cTrr-14" value="名称未設定レイヤ" style="" parent="0" />
        <mxCell id="7XUUMjl2pCJ0lQ--BuxK-3" value="&lt;span style=&quot;font-size: 30px;&quot;&gt;監査者／オンブズマン意見集約&lt;/span&gt;" style="rounded=0;whiteSpace=wrap;html=1;align=left;dashed=1;dashPattern=8 8;verticalAlign=bottom;" parent="cFaB45KztUIKXS-_cTrr-14" vertex="1">
          <mxGeometry x="23" y="90" width="477" height="46" as="geometry" />
        </mxCell>
        <mxCell id="7XUUMjl2pCJ0lQ--BuxK-4" value="&lt;span style=&quot;font-size: 30px;&quot;&gt;オンブズマンA&lt;/span&gt;" style="rounded=0;whiteSpace=wrap;html=1;align=left;dashed=1;dashPattern=8 8;verticalAlign=bottom;" parent="cFaB45KztUIKXS-_cTrr-14" vertex="1">
          <mxGeometry x="53" y="160" width="237" height="46" as="geometry" />
        </mxCell>
        <mxCell id="7XUUMjl2pCJ0lQ--BuxK-5" value="&lt;font style=&quot;font-size: 30px;&quot;&gt;修正具体案を確認する&lt;/font&gt;" style="rounded=1;whiteSpace=wrap;html=1;" parent="cFaB45KztUIKXS-_cTrr-14" vertex="1">
          <mxGeometry x="1060" y="141" width="350" height="60" as="geometry" />
        </mxCell>
        <mxCell id="7XUUMjl2pCJ0lQ--BuxK-6" value="&lt;font style=&quot;font-size: 30px;&quot;&gt;　意見付記詳細&lt;/font&gt;" style="rounded=1;whiteSpace=wrap;html=1;align=left;verticalAlign=top;" parent="cFaB45KztUIKXS-_cTrr-14" vertex="1">
          <mxGeometry x="670" y="229" width="740" height="260" as="geometry" />
        </mxCell>
        <mxCell id="7XUUMjl2pCJ0lQ--BuxK-7" value="&lt;span style=&quot;font-size: 30px;&quot;&gt;オンブズマンB&lt;/span&gt;" style="rounded=0;whiteSpace=wrap;html=1;align=left;dashed=1;dashPattern=8 8;verticalAlign=bottom;" parent="cFaB45KztUIKXS-_cTrr-14" vertex="1">
          <mxGeometry x="43" y="504" width="237" height="46" as="geometry" />
        </mxCell>
        <mxCell id="7XUUMjl2pCJ0lQ--BuxK-9" value="&lt;font color=&quot;#ff0000&quot; style=&quot;font-size: 30px;&quot;&gt;事務担当者1を支持&lt;/font&gt;" style="rounded=0;whiteSpace=wrap;html=1;" parent="cFaB45KztUIKXS-_cTrr-14" vertex="1">
          <mxGeometry x="91" y="574" width="307" height="60" as="geometry" />
        </mxCell>
        <mxCell id="7XUUMjl2pCJ0lQ--BuxK-11" value="&lt;font style=&quot;font-size: 30px;&quot;&gt;*収支報告&lt;/font&gt;" style="rounded=0;whiteSpace=wrap;html=1;align=right;dashed=1;dashPattern=8 8;verticalAlign=bottom;" parent="cFaB45KztUIKXS-_cTrr-14" vertex="1">
          <mxGeometry x="81" y="234" width="230" height="46" as="geometry" />
        </mxCell>
        <mxCell id="7XUUMjl2pCJ0lQ--BuxK-12" value="&lt;font style=&quot;font-size: 30px;&quot;&gt;*仕訳項目&lt;/font&gt;" style="rounded=0;whiteSpace=wrap;html=1;align=right;dashed=1;dashPattern=8 8;verticalAlign=bottom;" parent="cFaB45KztUIKXS-_cTrr-14" vertex="1">
          <mxGeometry x="81" y="294" width="230" height="46" as="geometry" />
        </mxCell>
        <mxCell id="7XUUMjl2pCJ0lQ--BuxK-14" value="&lt;font style=&quot;font-size: 30px;&quot;&gt;報告対象&lt;/font&gt;" style="rounded=0;whiteSpace=wrap;html=1;align=left;dashed=1;dashPattern=8 8;verticalAlign=bottom;" parent="cFaB45KztUIKXS-_cTrr-14" vertex="1">
          <mxGeometry x="341" y="236" width="230" height="46" as="geometry" />
        </mxCell>
        <mxCell id="7XUUMjl2pCJ0lQ--BuxK-15" value="&lt;span style=&quot;font-size: 30px;&quot;&gt;寄付団体(7-2)&lt;/span&gt;" style="rounded=0;whiteSpace=wrap;html=1;align=left;dashed=1;dashPattern=8 8;verticalAlign=bottom;" parent="cFaB45KztUIKXS-_cTrr-14" vertex="1">
          <mxGeometry x="341" y="296" width="230" height="46" as="geometry" />
        </mxCell>
        <mxCell id="7XUUMjl2pCJ0lQ--BuxK-17" value="&lt;div style=&quot;&quot;&gt;&lt;span style=&quot;font-size: 30px;&quot;&gt;2023-09-01 12:34:56&lt;/span&gt;&lt;/div&gt;" style="rounded=0;whiteSpace=wrap;html=1;align=left;dashed=1;dashPattern=8 8;verticalAlign=bottom;" parent="cFaB45KztUIKXS-_cTrr-14" vertex="1">
          <mxGeometry x="303" y="506" width="327" height="46" as="geometry" />
        </mxCell>
        <mxCell id="7XUUMjl2pCJ0lQ--BuxK-18" value="&lt;font style=&quot;font-size: 30px;&quot;&gt;　意見付記詳細&lt;/font&gt;" style="rounded=1;whiteSpace=wrap;html=1;align=left;verticalAlign=top;" parent="cFaB45KztUIKXS-_cTrr-14" vertex="1">
          <mxGeometry x="660" y="563" width="740" height="260" as="geometry" />
        </mxCell>
        <mxCell id="7XUUMjl2pCJ0lQ--BuxK-19" value="&lt;div style=&quot;&quot;&gt;&lt;span style=&quot;font-size: 30px;&quot;&gt;2023-09-01 12:34:56&lt;/span&gt;&lt;/div&gt;" style="rounded=0;whiteSpace=wrap;html=1;align=left;dashed=1;dashPattern=8 8;verticalAlign=bottom;" parent="cFaB45KztUIKXS-_cTrr-14" vertex="1">
          <mxGeometry x="313" y="162" width="327" height="46" as="geometry" />
        </mxCell>
        <mxCell id="7XUUMjl2pCJ0lQ--BuxK-20" value="&lt;span style=&quot;font-size: 30px;&quot;&gt;オンブズマンC&lt;/span&gt;" style="rounded=0;whiteSpace=wrap;html=1;align=left;dashed=1;dashPattern=8 8;verticalAlign=bottom;" parent="cFaB45KztUIKXS-_cTrr-14" vertex="1">
          <mxGeometry x="43" y="854" width="237" height="46" as="geometry" />
        </mxCell>
        <mxCell id="7XUUMjl2pCJ0lQ--BuxK-21" value="&lt;font color=&quot;#ff0000&quot; style=&quot;font-size: 30px;&quot;&gt;会計責任者を支持&lt;/font&gt;" style="rounded=0;whiteSpace=wrap;html=1;" parent="cFaB45KztUIKXS-_cTrr-14" vertex="1">
          <mxGeometry x="91" y="924" width="307" height="60" as="geometry" />
        </mxCell>
        <mxCell id="7XUUMjl2pCJ0lQ--BuxK-22" value="&lt;div style=&quot;&quot;&gt;&lt;span style=&quot;font-size: 30px;&quot;&gt;2023-09-01 12:34:56&lt;/span&gt;&lt;/div&gt;" style="rounded=0;whiteSpace=wrap;html=1;align=left;dashed=1;dashPattern=8 8;verticalAlign=bottom;" parent="cFaB45KztUIKXS-_cTrr-14" vertex="1">
          <mxGeometry x="303" y="856" width="327" height="46" as="geometry" />
        </mxCell>
        <mxCell id="7XUUMjl2pCJ0lQ--BuxK-23" value="&lt;font style=&quot;font-size: 30px;&quot;&gt;　意見付記詳細&lt;/font&gt;" style="rounded=1;whiteSpace=wrap;html=1;align=left;verticalAlign=top;" parent="cFaB45KztUIKXS-_cTrr-14" vertex="1">
          <mxGeometry x="660" y="893" width="740" height="260" as="geometry" />
        </mxCell>
        <mxCell id="7XUUMjl2pCJ0lQ--BuxK-24" value="振番" parent="0" />
      </root>
    </mxGraphModel>
  </diagram>
</mxfile>
